<svg width="15" height="16" viewBox="0 0 15 16" fill="none" xmlns="http://www.w3.org/2000/svg">
<path d="M0.296529 14.011C-0.0919878 14.4035 -0.0919878 15.0399 0.296529 15.4324C0.685045 15.8249 1.31495 15.8249 1.70347 15.4324L0.296529 14.011ZM14.9949 1.58766C14.9949 1.03255 14.5494 0.582542 14 0.582542L5.04627 0.582543C4.49683 0.582543 4.05141 1.03255 4.05141 1.58766C4.05141 2.14277 4.49683 2.59277 5.04627 2.59277L13.0051 2.59277L13.0051 10.6337C13.0051 11.1888 13.4506 11.6388 14 11.6388C14.5494 11.6388 14.9949 11.1888 14.9949 10.6337L14.9949 1.58766ZM1.70347 15.4324L14.7035 2.29838L13.2965 0.876934L0.296529 14.011L1.70347 15.4324Z" fill="white"/>
</svg>
